<svg width="390" height="844" viewBox="0 0 390 844" fill="none" xmlns="http://www.w3.org/2000/svg">
<g clip-path="url(#clip0_2055_3576)">
<path d="M1227.25 1364.19C1013.62 1878.76 523.194 1894.72 203.292 1788C-116.611 1681.28 -157.591 1153.61 -308.276 851.911C-458.962 550.214 -520.153 553.147 -520 339.854C-519.846 126.56 -458.496 -21.2131 -307.539 -171.899C-156.582 -322.584 -115.461 -277.175 204.595 -383.438C524.651 -489.7 1015.67 -1046.05 1228.73 -681.96" stroke="url(#paint0_linear_2055_3576)" stroke-width="2"/>
<path d="M1212.29 1348.23C1002.69 1853.09 521.511 1868.76 207.645 1764.05C-106.222 1659.34 -146.429 1141.62 -294.271 845.619C-442.114 549.614 -502.15 552.491 -502 343.222C-501.849 133.953 -441.657 -11.032 -293.548 -158.875C-145.439 -306.717 -105.094 -262.164 208.923 -366.422C522.94 -470.68 1004.7 -1016.53 1213.73 -659.312" stroke="url(#paint1_linear_2055_3576)" stroke-width="2"/>
<path d="M1197.32 1332.27C991.749 1827.43 519.828 1842.79 211.998 1740.09C-95.8329 1637.39 -135.267 1129.64 -280.266 839.326C-425.265 549.013 -484.148 551.836 -484 346.591C-483.852 141.346 -424.817 -0.85083 -279.556 -145.85C-134.296 -290.85 -94.7263 -247.154 213.252 -349.406C521.23 -451.659 993.725 -987.013 1198.74 -636.664" stroke="url(#paint2_linear_2055_3576)" stroke-width="2"/>
<path d="M1182.35 1316.31C980.813 1801.76 518.145 1816.82 216.351 1716.14C-85.4441 1615.45 -124.104 1117.65 -266.261 833.033C-408.417 548.412 -466.145 551.18 -466 349.959C-465.855 148.739 -407.978 9.33028 -265.565 -132.826C-123.153 -274.982 -84.3591 -232.143 217.58 -332.391C519.52 -432.639 982.75 -957.495 1183.74 -614.016" stroke="url(#paint3_linear_2055_3576)" stroke-width="2"/>
<path d="M1167.39 1300.35C969.877 1776.09 516.462 1790.85 220.704 1692.18C-75.0552 1593.51 -112.942 1105.67 -252.256 826.74C-391.569 547.812 -448.142 550.524 -448 353.328C-447.858 156.132 -391.138 19.5114 -251.574 -119.802C-112.009 -259.115 -73.9919 -217.132 221.909 -315.375C517.809 -413.618 971.775 -927.977 1168.75 -591.368" stroke="url(#paint4_linear_2055_3576)" stroke-width="2"/>
<path d="M1152.42 1284.39C958.941 1750.42 514.779 1764.88 225.057 1668.23C-64.6663 1571.57 -101.78 1093.68 -238.25 820.447C-374.72 547.212 -430.139 549.868 -430 356.697C-429.861 163.525 -374.298 29.6928 -237.582 -106.777C-100.866 -243.247 -63.6248 -202.122 226.237 -298.36C516.099 -394.598 960.8 -898.46 1153.75 -568.719" stroke="url(#paint5_linear_2055_3576)" stroke-width="2"/>
<path d="M1137.45 1268.43C948.004 1724.76 513.097 1738.91 229.41 1644.27C-54.2774 1549.63 -90.6182 1081.7 -224.245 814.154C-357.872 546.611 -412.136 549.212 -412 360.065C-411.863 170.918 -357.459 39.8739 -223.591 -93.753C-89.7234 -227.38 -53.2575 -187.111 230.565 -281.344C514.389 -375.577 949.825 -868.942 1138.76 -546.071" stroke="url(#paint6_linear_2055_3576)" stroke-width="2"/>
<path d="M1122.49 1252.48C937.068 1699.09 511.414 1712.94 233.763 1620.32C-43.8885 1527.69 -79.4561 1069.71 -210.24 807.861C-341.024 546.011 -394.133 548.556 -394 363.434C-393.866 178.311 -340.619 50.055 -209.6 -80.7288C-78.5803 -211.513 -42.8904 -172.1 234.894 -264.328C512.678 -356.557 938.85 -839.424 1123.76 -523.423" stroke="url(#paint7_linear_2055_3576)" stroke-width="2"/>
<path d="M1107.52 1236.52C926.132 1673.42 509.731 1686.98 238.116 1596.36C-33.4996 1505.75 -68.294 1057.73 -196.235 801.568C-324.175 545.41 -376.13 547.901 -376 366.802C-375.869 185.704 -323.78 60.2361 -195.609 -67.7045C-67.4373 -195.645 -32.5232 -157.09 239.222 -247.313C510.968 -337.536 927.875 -809.907 1108.77 -500.775" stroke="url(#paint8_linear_2055_3576)" stroke-width="2"/>
<path d="M1092.55 1220.56C915.196 1647.75 508.048 1661.01 242.469 1572.41C-23.1108 1483.81 -57.1319 1045.74 -182.229 795.276C-307.327 544.81 -358.127 547.245 -358 370.171C-357.872 193.097 -306.94 70.4175 -181.617 -54.6801C-56.2942 -179.778 -22.156 -142.079 243.551 -230.297C509.257 -318.515 916.9 -780.389 1093.77 -478.127" stroke="url(#paint9_linear_2055_3576)" stroke-width="2"/>
<path d="M1077.58 1204.6C904.259 1622.09 506.365 1635.04 246.822 1548.45C-12.7219 1461.86 -45.9699 1033.76 -168.224 788.983C-290.479 544.209 -340.124 546.589 -340 373.539C-339.875 200.49 -290.101 80.5986 -167.626 -41.6558C-45.1512 -163.91 -11.7888 -127.068 247.879 -213.282C507.547 -299.495 905.925 -750.871 1078.78 -455.479" stroke="url(#paint10_linear_2055_3576)" stroke-width="2"/>
<path d="M1062.62 1188.64C893.323 1596.42 504.682 1609.07 251.174 1524.5C-2.33301 1439.92 -34.8078 1021.77 -154.219 782.69C-273.63 543.609 -322.122 545.933 -322 376.908C-321.878 207.883 -273.261 90.7797 -153.635 -28.6315C-34.0081 -148.043 -1.42163 -112.058 252.207 -196.266C505.837 -280.474 894.95 -721.354 1063.78 -432.831" stroke="url(#paint11_linear_2055_3576)" stroke-width="2"/>
<path d="M1047.65 1172.68C882.387 1570.75 502.999 1583.1 255.527 1500.54C8.05586 1417.98 -23.6457 1009.79 -140.214 776.397C-256.782 543.008 -304.119 545.277 -304 380.276C-303.881 215.276 -256.422 100.961 -139.643 -15.6073C-22.8651 -132.175 8.94553 -97.0473 256.536 -179.251C504.126 -261.454 883.975 -691.836 1048.79 -410.183" stroke="url(#paint12_linear_2055_3576)" stroke-width="2"/>
<path d="M1032.68 1156.73C871.451 1545.08 501.316 1557.13 259.88 1476.59C18.4448 1396.04 -12.4836 997.8 -126.209 770.104C-239.934 542.408 -286.116 544.622 -286 383.645C-285.884 222.669 -239.582 111.142 -125.652 -2.58304C-11.722 -116.308 19.3127 -82.0367 260.864 -162.235C502.416 -242.433 873 -662.318 1033.8 -387.535" stroke="url(#paint13_linear_2055_3576)" stroke-width="2"/>
<path d="M1017.72 1140.77C860.514 1519.42 499.633 1531.16 264.233 1452.63C28.8336 1374.1 -1.3215 985.815 -112.203 763.811C-223.085 541.807 -268.113 543.966 -268 387.014C-267.887 230.062 -222.742 121.323 -111.661 10.4414C-0.578979 -100.44 29.6799 -67.0259 265.193 -145.219C500.705 -223.413 862.025 -632.8 1018.8 -364.887" stroke="url(#paint14_linear_2055_3576)" stroke-width="2"/>
<path d="M1002.75 1124.81C849.578 1493.75 497.95 1505.2 268.586 1428.68C39.2225 1352.16 9.84062 973.829 -98.1982 757.518C-206.237 541.207 -250.11 543.31 -250 390.382C-249.89 237.455 -205.903 131.504 -97.6694 23.4657C10.5641 -84.5731 40.0471 -52.0153 269.521 -128.204C498.995 -204.392 851.05 -603.283 1003.81 -342.239" stroke="url(#paint15_linear_2055_3576)" stroke-width="2"/>
<path d="M987.782 1108.85C838.642 1468.08 496.267 1479.23 272.939 1404.72C49.6114 1330.22 21.0027 961.844 -84.193 751.225C-189.389 540.606 -232.107 542.654 -232 393.751C-231.893 244.848 -189.063 141.686 -83.6781 36.4899C21.7071 -68.7057 50.4143 -37.0047 273.849 -111.188C497.285 -185.372 840.075 -573.765 988.811 -319.591" stroke="url(#paint16_linear_2055_3576)" stroke-width="2"/>
<path d="M972.815 1092.89C827.706 1442.41 494.585 1453.26 277.292 1380.77C60.0003 1308.28 32.1648 949.859 -70.1878 744.932C-172.54 540.006 -214.104 541.998 -214 397.12C-213.895 252.241 -172.224 151.867 -69.6868 49.5142C32.8502 -52.8383 60.7815 -21.9941 278.178 -94.1726C495.574 -166.351 829.1 -544.248 973.816 -296.942" stroke="url(#paint17_linear_2055_3576)" stroke-width="2"/>
<path d="M957.848 1076.93C816.769 1416.75 492.902 1427.29 281.645 1356.81C70.3892 1286.33 43.3269 937.874 -56.1826 738.64C-155.692 539.406 -196.101 541.343 -196 400.488C-195.898 259.634 -155.384 162.048 -55.6955 62.5387C43.9932 -36.9707 71.1487 -6.98329 282.506 -77.1568C493.864 -147.33 818.125 -514.73 958.821 -274.294" stroke="url(#paint18_linear_2055_3576)" stroke-width="2"/>
<path d="M942.88 1060.98C805.833 1391.08 491.219 1401.32 285.998 1332.86C80.778 1264.39 54.489 925.888 -42.1773 732.347C-138.844 538.805 -178.098 540.687 -178 403.857C-177.901 267.027 -138.545 172.229 -41.7042 75.5629C55.1363 -21.1034 81.5158 8.02729 286.835 -60.1413C492.153 -128.31 807.15 -485.212 943.826 -251.646" stroke="url(#paint19_linear_2055_3576)" stroke-width="2"/>
<path d="M927.913 1045.02C794.897 1365.41 489.536 1375.35 290.351 1308.9C91.1669 1242.45 65.651 913.903 -28.1721 726.054C-121.995 538.205 -160.095 540.031 -160 407.225C-159.904 274.42 -121.705 182.41 -27.7129 88.5871C66.2793 -5.23601 91.883 23.0379 291.163 -43.1257C490.443 -109.289 796.175 -455.694 928.831 -228.998" stroke="url(#paint20_linear_2055_3576)" stroke-width="2"/>
<path d="M912.946 1029.06C783.96 1339.75 487.853 1349.38 294.704 1284.95C101.556 1220.51 76.8131 901.918 -14.1669 719.761C-105.147 537.604 -142.093 539.375 -142 410.594C-141.907 281.813 -104.866 192.591 -13.7216 101.611C77.4224 10.6315 102.25 38.0486 295.491 -26.1101C488.733 -90.2687 785.2 -426.177 913.836 -206.35" stroke="url(#paint21_linear_2055_3576)" stroke-width="2"/>
<path d="M897.979 1013.1C773.024 1314.08 486.17 1323.42 299.057 1260.99C111.945 1198.57 87.9752 889.933 -0.16169 713.468C-88.2986 537.004 -124.09 538.719 -124 413.963C-123.91 289.206 -88.0261 202.773 0.269684 114.636C88.5654 26.4989 112.617 53.0592 299.82 -9.0945C487.022 -71.2482 774.225 -396.659 898.841 -183.702" stroke="url(#paint22_linear_2055_3576)" stroke-width="2"/>
<path d="M883.012 997.142C762.088 1288.41 484.487 1297.45 303.41 1237.04C122.334 1176.63 99.1373 877.947 13.8435 707.175C-71.4503 536.403 -106.087 538.064 -106 417.331C-105.913 296.599 -71.1865 212.954 14.261 127.66C99.7085 42.3664 122.985 68.0699 304.148 7.92116C485.312 -52.2276 763.25 -367.141 883.846 -161.054" stroke="url(#paint23_linear_2055_3576)" stroke-width="2"/>
<path d="M868.045 981.183C751.152 1262.74 482.804 1271.48 307.763 1213.08C132.722 1154.69 110.299 865.962 27.8487 700.882C-54.6019 535.803 -88.0839 537.408 -87.9998 420.7C-87.9158 303.992 -54.347 223.135 28.2523 140.684C110.852 58.2337 133.352 83.0805 308.477 24.9367C483.601 -33.2071 752.275 -337.624 868.852 -138.406" stroke="url(#paint24_linear_2055_3576)" stroke-width="2"/>
<path d="M853.078 965.225C740.215 1237.08 481.121 1245.51 312.116 1189.13C143.111 1132.74 121.461 853.977 41.854 694.589C-37.7536 535.202 -70.081 536.752 -69.9998 424.068C-69.9187 311.385 -37.5074 233.316 42.2436 153.709C121.995 74.1011 143.719 98.091 312.805 41.9522C481.891 -14.1866 741.3 -308.106 853.857 -115.758" stroke="url(#paint25_linear_2055_3576)" stroke-width="2"/>
<path d="M838.111 949.266C729.279 1211.41 479.438 1219.54 316.469 1165.17C153.5 1110.8 132.624 841.992 55.8592 688.297C-20.9052 534.602 -52.0781 536.096 -51.9999 427.437C-51.9216 318.778 -20.6679 243.497 56.2349 166.733C133.138 89.9686 154.086 113.102 317.133 58.9679C480.181 4.83406 730.325 -278.588 838.862 -93.1095" stroke="url(#paint26_linear_2055_3576)" stroke-width="2"/>
<path d="M823.144 933.308C718.343 1185.74 477.756 1193.57 320.822 1141.22C163.889 1088.86 143.786 830.006 69.8644 682.004C-4.0569 534.001 -34.0752 535.44 -33.9999 430.805C-33.9245 326.171 -3.82832 253.678 70.2262 179.757C144.281 105.836 164.453 128.112 321.462 75.9835C478.47 23.8546 719.35 -249.071 823.867 -70.4615" stroke="url(#paint27_linear_2055_3576)" stroke-width="2"/>
<path d="M808.177 917.35C707.407 1160.07 476.073 1167.6 325.175 1117.26C174.278 1066.92 154.948 818.021 83.8696 675.711C12.7915 533.401 -16.0723 534.784 -15.9999 434.174C-15.9274 333.564 13.0112 263.86 84.2175 192.782C155.424 121.703 174.82 143.123 325.79 92.9991C476.76 42.8752 708.375 -219.553 808.872 -47.8133" stroke="url(#paint28_linear_2055_3576)" stroke-width="2"/>
<path d="M793.21 901.391C696.47 1134.41 474.39 1141.64 329.528 1093.31C184.667 1044.98 166.11 806.036 97.8748 669.418C29.6398 532.8 1.93056 534.129 2.00013 437.543C2.06971 340.957 29.8508 274.041 98.2088 205.806C166.567 137.571 185.188 158.134 330.119 110.015C475.049 61.8957 697.4 -190.035 793.877 -25.1653" stroke="url(#paint29_linear_2055_3576)" stroke-width="2"/>
<path d="M778.243 885.433C685.534 1108.74 472.707 1115.67 333.881 1069.35C195.056 1023.04 177.272 794.05 111.88 663.125C46.4881 532.2 19.9334 533.473 20.0001 440.911C20.0668 348.35 46.6903 284.222 112.2 218.83C177.71 153.438 195.555 173.144 334.447 127.03C473.339 80.9162 686.425 -160.518 778.882 -2.51723" stroke="url(#paint30_linear_2055_3576)" stroke-width="2"/>
<path d="M763.276 869.474C674.598 1083.07 471.024 1089.7 338.234 1045.4C205.445 1001.1 188.434 782.065 125.885 656.832C63.3365 531.599 37.9363 532.817 38.0001 444.28C38.0639 355.743 63.5299 294.403 126.191 231.854C188.853 169.306 205.922 188.155 338.775 144.046C471.629 99.9367 675.45 -131 763.887 20.1308" stroke="url(#paint31_linear_2055_3576)" stroke-width="2"/>
<path d="M748.308 853.516C663.662 1057.4 469.341 1063.73 342.587 1021.44C215.833 979.156 199.596 770.08 139.89 650.539C80.1848 530.999 55.9392 532.161 56.0001 447.649C56.061 363.136 80.3694 304.584 140.183 244.879C199.996 185.173 216.289 203.166 343.104 161.062C469.918 118.957 664.475 -101.482 748.892 42.7791" stroke="url(#paint32_linear_2055_3576)" stroke-width="2"/>
<path d="M733.341 837.557C652.725 1031.74 467.658 1037.76 346.94 997.488C226.222 957.215 210.758 758.095 153.896 644.247C97.0332 530.398 73.9421 531.505 74.0001 451.017C74.0581 370.529 97.209 314.766 154.174 257.903C211.139 201.041 226.656 218.176 347.432 178.077C468.208 137.978 653.5 -71.9646 733.898 65.4271" stroke="url(#paint33_linear_2055_3576)" stroke-width="2"/>
<path d="M718.374 821.599C641.789 1006.07 465.975 1011.79 351.293 973.533C236.611 935.273 221.92 746.109 167.901 637.954C113.882 529.798 91.945 530.849 92.0001 454.386C92.0552 377.922 114.049 324.947 168.165 270.927C222.282 216.908 237.024 233.187 351.76 195.093C466.497 156.998 642.525 -42.447 718.903 88.0752" stroke="url(#paint34_linear_2055_3576)" stroke-width="2"/>
<path d="M703.407 805.64C630.853 980.402 464.292 985.824 355.646 949.578C247 913.332 233.082 734.124 181.906 631.661C130.73 529.197 109.948 530.194 110 457.754C110.052 385.315 130.888 335.128 182.157 283.952C233.425 232.775 247.391 248.197 356.089 212.108C464.787 176.019 631.55 -12.9293 703.908 110.723" stroke="url(#paint35_linear_2055_3576)" stroke-width="2"/>
<path d="M688.44 789.682C619.916 954.735 462.609 959.855 359.999 925.623C257.389 891.391 244.244 722.139 195.911 625.368C147.578 528.597 127.951 529.538 128 461.123C128.049 392.708 147.728 345.309 196.148 296.976C244.568 248.643 257.758 263.208 360.417 229.124C463.077 195.04 620.575 16.5884 688.913 133.371" stroke="url(#paint36_linear_2055_3576)" stroke-width="2"/>
<path d="M673.473 773.724C608.98 929.067 460.926 933.887 364.352 901.668C267.778 869.45 255.407 710.153 209.917 619.075C164.427 527.997 145.954 528.882 146 464.492C146.046 400.101 164.567 355.49 210.139 310C255.711 264.51 268.125 278.219 364.746 246.139C461.366 214.06 609.6 46.1061 673.918 156.02" stroke="url(#paint37_linear_2055_3576)" stroke-width="2"/>
<path d="M658.506 757.765C598.044 903.4 459.244 907.918 368.705 877.713C278.167 847.508 266.569 698.168 223.922 612.782C181.275 527.396 163.957 528.226 164 467.86C164.044 407.494 181.407 365.671 224.13 323.025C266.854 280.378 278.492 293.229 369.074 263.155C459.656 233.081 598.625 75.6238 658.923 178.668" stroke="url(#paint38_linear_2055_3576)" stroke-width="2"/>
<path d="M643.539 741.807C587.108 877.732 457.561 881.949 373.058 853.758C288.556 825.567 277.731 686.183 237.927 606.489C198.123 526.796 181.959 527.57 182 471.229C182.041 414.887 198.246 375.853 238.122 336.049C277.997 296.245 288.859 308.24 373.402 280.171C457.946 252.101 587.65 105.141 643.928 201.316" stroke="url(#paint39_linear_2055_3576)" stroke-width="2"/>
<path d="M628.572 725.848C576.171 852.065 455.878 855.981 377.411 829.803C298.945 803.626 288.893 674.198 251.932 600.196C214.972 526.195 199.962 526.915 200 474.597C200.038 422.28 215.086 386.034 252.113 349.073C289.14 312.112 299.227 323.251 377.731 297.186C456.235 271.122 576.675 134.659 628.933 223.964" stroke="url(#paint40_linear_2055_3576)" stroke-width="2"/>
<path d="M613.605 709.89C565.235 826.398 454.195 830.012 381.764 805.848C309.333 781.684 300.055 662.212 265.937 593.903C231.82 525.595 217.965 526.259 218 477.966C218.035 429.673 231.925 396.215 266.104 362.097C300.283 327.98 309.594 338.261 382.059 314.202C454.525 290.142 565.7 164.177 613.939 246.612" stroke="url(#paint41_linear_2055_3576)" stroke-width="2"/>
<path d="M598.638 693.932C554.299 800.73 452.512 804.044 386.117 781.893C319.722 759.743 311.217 650.227 279.943 587.611C248.668 524.994 235.968 525.603 236 481.334C236.032 437.066 248.765 406.396 280.096 375.122C311.426 343.847 319.961 353.272 386.388 331.217C452.814 309.163 554.725 193.695 598.944 269.26" stroke="url(#paint42_linear_2055_3576)" stroke-width="2"/>
<path d="M583.671 677.973C543.363 775.063 450.829 778.075 390.47 757.938C330.111 737.802 322.379 638.242 293.948 581.318C265.517 524.394 253.971 524.947 254 484.703C254.029 444.459 265.604 416.577 294.087 388.146C322.569 359.715 330.328 368.283 390.716 348.233C451.104 328.183 543.75 223.212 583.949 291.908" stroke="url(#paint43_linear_2055_3576)" stroke-width="2"/>
<path d="M568.704 662.015C532.426 749.396 449.146 752.106 394.823 733.983C340.5 715.861 333.541 626.257 307.953 575.025C282.365 523.793 271.974 524.291 272 488.072C272.026 451.852 282.444 426.758 308.078 401.17C333.713 375.582 340.695 383.293 395.044 365.249C449.394 347.204 532.775 252.73 568.954 314.556" stroke="url(#paint44_linear_2055_3576)" stroke-width="2"/>
<path d="M553.737 646.056C521.49 723.728 447.463 726.138 399.176 710.028C350.889 693.919 344.703 614.271 321.958 568.732C299.213 523.193 289.977 523.635 290 491.44C290.023 459.245 299.284 436.94 322.07 414.195C344.856 391.45 351.063 398.304 399.373 382.264C447.683 366.225 521.8 282.248 553.959 337.204" stroke="url(#paint45_linear_2055_3576)" stroke-width="2"/>
<path d="M538.769 630.098C510.554 698.061 445.78 700.169 403.529 686.074C361.278 671.978 355.865 602.286 335.963 562.439C316.062 522.592 307.98 522.98 308 494.809C308.02 466.638 316.123 447.121 336.061 427.219C355.999 407.317 361.43 413.315 403.701 399.28C445.973 385.245 510.825 311.765 538.964 359.852" stroke="url(#paint46_linear_2055_3576)" stroke-width="2"/>
<path d="M523.802 614.14C499.618 672.393 444.097 674.201 407.882 662.119C371.667 650.037 367.027 590.301 349.969 556.146C332.91 521.992 325.983 522.324 326 498.177C326.017 474.031 332.963 457.302 350.052 440.243C367.142 423.184 371.797 428.325 408.03 416.295C444.262 404.266 499.85 341.283 523.969 382.5" stroke="url(#paint47_linear_2055_3576)" stroke-width="2"/>
<path d="M508.835 598.181C488.681 646.726 442.415 648.232 412.235 638.164C382.056 628.095 378.19 578.315 363.974 549.853C349.758 521.391 343.986 521.668 344 501.546C344.015 481.424 349.802 467.483 364.043 453.267C378.285 439.052 382.164 443.336 412.358 433.311C442.552 423.286 488.875 370.801 508.974 405.148" stroke="url(#paint48_linear_2055_3576)" stroke-width="2"/>
<path d="M493.868 582.223C477.745 621.059 440.732 622.263 416.588 614.209C392.444 606.154 389.352 566.33 377.979 543.56C366.607 520.791 361.988 521.012 362 504.915C362.012 488.817 366.642 477.664 378.035 466.292C389.428 454.919 392.531 458.346 416.686 450.327C440.842 442.307 477.9 400.318 493.98 427.797" stroke="url(#paint49_linear_2055_3576)" stroke-width="2"/>
<path d="M478.901 566.264C466.809 595.391 439.049 596.295 420.941 590.254C402.833 584.213 400.514 554.345 391.984 537.268C383.455 520.19 379.991 520.356 380 508.283C380.009 496.21 383.481 487.845 392.026 479.316C400.571 470.787 402.898 473.357 421.015 467.342C439.131 461.327 466.925 429.836 478.985 450.445" stroke="url(#paint50_linear_2055_3576)" stroke-width="2"/>
</g>
<defs>
<linearGradient id="paint0_linear_2055_3576" x1="-524.171" y1="502.647" x2="1389" y2="502.53" gradientUnits="userSpaceOnUse">
<stop stop-color="#939AFE"/>
<stop offset="0.38" stop-color="#5060FF"/>
</linearGradient>
<linearGradient id="paint1_linear_2055_3576" x1="-506.092" y1="502.944" x2="1370.98" y2="502.829" gradientUnits="userSpaceOnUse">
<stop stop-color="#939AFE"/>
<stop offset="0.38" stop-color="#5060FF"/>
</linearGradient>
<linearGradient id="paint2_linear_2055_3576" x1="-488.013" y1="503.241" x2="1352.96" y2="503.128" gradientUnits="userSpaceOnUse">
<stop stop-color="#939AFE"/>
<stop offset="0.38" stop-color="#5060FF"/>
</linearGradient>
<linearGradient id="paint3_linear_2055_3576" x1="-469.934" y1="503.538" x2="1334.94" y2="503.428" gradientUnits="userSpaceOnUse">
<stop stop-color="#939AFE"/>
<stop offset="0.38" stop-color="#5060FF"/>
</linearGradient>
<linearGradient id="paint4_linear_2055_3576" x1="-451.856" y1="503.835" x2="1316.92" y2="503.727" gradientUnits="userSpaceOnUse">
<stop stop-color="#939AFE"/>
<stop offset="0.38" stop-color="#5060FF"/>
</linearGradient>
<linearGradient id="paint5_linear_2055_3576" x1="-433.777" y1="504.132" x2="1298.9" y2="504.026" gradientUnits="userSpaceOnUse">
<stop stop-color="#939AFE"/>
<stop offset="0.38" stop-color="#5060FF"/>
</linearGradient>
<linearGradient id="paint6_linear_2055_3576" x1="-415.698" y1="504.429" x2="1280.88" y2="504.325" gradientUnits="userSpaceOnUse">
<stop stop-color="#939AFE"/>
<stop offset="0.38" stop-color="#5060FF"/>
</linearGradient>
<linearGradient id="paint7_linear_2055_3576" x1="-397.62" y1="504.726" x2="1262.86" y2="504.624" gradientUnits="userSpaceOnUse">
<stop stop-color="#939AFE"/>
<stop offset="0.38" stop-color="#5060FF"/>
</linearGradient>
<linearGradient id="paint8_linear_2055_3576" x1="-379.541" y1="505.023" x2="1244.85" y2="504.924" gradientUnits="userSpaceOnUse">
<stop stop-color="#939AFE"/>
<stop offset="0.38" stop-color="#5060FF"/>
</linearGradient>
<linearGradient id="paint9_linear_2055_3576" x1="-361.462" y1="505.32" x2="1226.83" y2="505.223" gradientUnits="userSpaceOnUse">
<stop stop-color="#939AFE"/>
<stop offset="0.38" stop-color="#5060FF"/>
</linearGradient>
<linearGradient id="paint10_linear_2055_3576" x1="-343.384" y1="505.617" x2="1208.81" y2="505.522" gradientUnits="userSpaceOnUse">
<stop stop-color="#939AFE"/>
<stop offset="0.38" stop-color="#5060FF"/>
</linearGradient>
<linearGradient id="paint11_linear_2055_3576" x1="-325.305" y1="505.914" x2="1190.79" y2="505.821" gradientUnits="userSpaceOnUse">
<stop stop-color="#939AFE"/>
<stop offset="0.38" stop-color="#5060FF"/>
</linearGradient>
<linearGradient id="paint12_linear_2055_3576" x1="-307.226" y1="506.211" x2="1172.77" y2="506.121" gradientUnits="userSpaceOnUse">
<stop stop-color="#939AFE"/>
<stop offset="0.38" stop-color="#5060FF"/>
</linearGradient>
<linearGradient id="paint13_linear_2055_3576" x1="-289.148" y1="506.508" x2="1154.75" y2="506.42" gradientUnits="userSpaceOnUse">
<stop stop-color="#939AFE"/>
<stop offset="0.38" stop-color="#5060FF"/>
</linearGradient>
<linearGradient id="paint14_linear_2055_3576" x1="-271.069" y1="506.805" x2="1136.73" y2="506.719" gradientUnits="userSpaceOnUse">
<stop stop-color="#939AFE"/>
<stop offset="0.38" stop-color="#5060FF"/>
</linearGradient>
<linearGradient id="paint15_linear_2055_3576" x1="-252.99" y1="507.102" x2="1118.71" y2="507.018" gradientUnits="userSpaceOnUse">
<stop stop-color="#939AFE"/>
<stop offset="0.38" stop-color="#5060FF"/>
</linearGradient>
<linearGradient id="paint16_linear_2055_3576" x1="-234.911" y1="507.399" x2="1100.7" y2="507.317" gradientUnits="userSpaceOnUse">
<stop stop-color="#939AFE"/>
<stop offset="0.38" stop-color="#5060FF"/>
</linearGradient>
<linearGradient id="paint17_linear_2055_3576" x1="-216.833" y1="507.696" x2="1082.68" y2="507.617" gradientUnits="userSpaceOnUse">
<stop stop-color="#939AFE"/>
<stop offset="0.38" stop-color="#5060FF"/>
</linearGradient>
<linearGradient id="paint18_linear_2055_3576" x1="-198.754" y1="507.993" x2="1064.66" y2="507.916" gradientUnits="userSpaceOnUse">
<stop stop-color="#939AFE"/>
<stop offset="0.38" stop-color="#5060FF"/>
</linearGradient>
<linearGradient id="paint19_linear_2055_3576" x1="-180.675" y1="508.29" x2="1046.64" y2="508.215" gradientUnits="userSpaceOnUse">
<stop stop-color="#939AFE"/>
<stop offset="0.38" stop-color="#5060FF"/>
</linearGradient>
<linearGradient id="paint20_linear_2055_3576" x1="-162.597" y1="508.587" x2="1028.62" y2="508.514" gradientUnits="userSpaceOnUse">
<stop stop-color="#939AFE"/>
<stop offset="0.38" stop-color="#5060FF"/>
</linearGradient>
<linearGradient id="paint21_linear_2055_3576" x1="-144.518" y1="508.884" x2="1010.6" y2="508.814" gradientUnits="userSpaceOnUse">
<stop stop-color="#939AFE"/>
<stop offset="0.38" stop-color="#5060FF"/>
</linearGradient>
<linearGradient id="paint22_linear_2055_3576" x1="-126.439" y1="509.181" x2="992.582" y2="509.113" gradientUnits="userSpaceOnUse">
<stop stop-color="#939AFE"/>
<stop offset="0.38" stop-color="#5060FF"/>
</linearGradient>
<linearGradient id="paint23_linear_2055_3576" x1="-108.361" y1="509.478" x2="974.564" y2="509.412" gradientUnits="userSpaceOnUse">
<stop stop-color="#939AFE"/>
<stop offset="0.38" stop-color="#5060FF"/>
</linearGradient>
<linearGradient id="paint24_linear_2055_3576" x1="-90.282" y1="509.775" x2="956.545" y2="509.711" gradientUnits="userSpaceOnUse">
<stop stop-color="#939AFE"/>
<stop offset="0.38" stop-color="#5060FF"/>
</linearGradient>
<linearGradient id="paint25_linear_2055_3576" x1="-72.2033" y1="510.072" x2="938.526" y2="510.011" gradientUnits="userSpaceOnUse">
<stop stop-color="#939AFE"/>
<stop offset="0.38" stop-color="#5060FF"/>
</linearGradient>
<linearGradient id="paint26_linear_2055_3576" x1="-54.1246" y1="510.369" x2="920.507" y2="510.31" gradientUnits="userSpaceOnUse">
<stop stop-color="#939AFE"/>
<stop offset="0.38" stop-color="#5060FF"/>
</linearGradient>
<linearGradient id="paint27_linear_2055_3576" x1="-36.0459" y1="510.666" x2="902.489" y2="510.609" gradientUnits="userSpaceOnUse">
<stop stop-color="#939AFE"/>
<stop offset="0.38" stop-color="#5060FF"/>
</linearGradient>
<linearGradient id="paint28_linear_2055_3576" x1="-17.9672" y1="510.963" x2="884.47" y2="510.908" gradientUnits="userSpaceOnUse">
<stop stop-color="#939AFE"/>
<stop offset="0.38" stop-color="#5060FF"/>
</linearGradient>
<linearGradient id="paint29_linear_2055_3576" x1="0.111469" y1="511.26" x2="866.451" y2="511.208" gradientUnits="userSpaceOnUse">
<stop stop-color="#939AFE"/>
<stop offset="0.38" stop-color="#5060FF"/>
</linearGradient>
<linearGradient id="paint30_linear_2055_3576" x1="18.1902" y1="511.557" x2="848.432" y2="511.507" gradientUnits="userSpaceOnUse">
<stop stop-color="#939AFE"/>
<stop offset="0.38" stop-color="#5060FF"/>
</linearGradient>
<linearGradient id="paint31_linear_2055_3576" x1="36.2688" y1="511.854" x2="830.413" y2="511.806" gradientUnits="userSpaceOnUse">
<stop stop-color="#939AFE"/>
<stop offset="0.38" stop-color="#5060FF"/>
</linearGradient>
<linearGradient id="paint32_linear_2055_3576" x1="54.3475" y1="512.152" x2="812.395" y2="512.105" gradientUnits="userSpaceOnUse">
<stop stop-color="#939AFE"/>
<stop offset="0.38" stop-color="#5060FF"/>
</linearGradient>
<linearGradient id="paint33_linear_2055_3576" x1="72.4262" y1="512.448" x2="794.376" y2="512.404" gradientUnits="userSpaceOnUse">
<stop stop-color="#939AFE"/>
<stop offset="0.38" stop-color="#5060FF"/>
</linearGradient>
<linearGradient id="paint34_linear_2055_3576" x1="90.5049" y1="512.745" x2="776.357" y2="512.704" gradientUnits="userSpaceOnUse">
<stop stop-color="#939AFE"/>
<stop offset="0.38" stop-color="#5060FF"/>
</linearGradient>
<linearGradient id="paint35_linear_2055_3576" x1="108.584" y1="513.042" x2="758.338" y2="513.003" gradientUnits="userSpaceOnUse">
<stop stop-color="#939AFE"/>
<stop offset="0.38" stop-color="#5060FF"/>
</linearGradient>
<linearGradient id="paint36_linear_2055_3576" x1="126.662" y1="513.34" x2="740.319" y2="513.302" gradientUnits="userSpaceOnUse">
<stop stop-color="#939AFE"/>
<stop offset="0.38" stop-color="#5060FF"/>
</linearGradient>
<linearGradient id="paint37_linear_2055_3576" x1="144.741" y1="513.637" x2="722.301" y2="513.601" gradientUnits="userSpaceOnUse">
<stop stop-color="#939AFE"/>
<stop offset="0.38" stop-color="#5060FF"/>
</linearGradient>
<linearGradient id="paint38_linear_2055_3576" x1="162.82" y1="513.934" x2="704.282" y2="513.901" gradientUnits="userSpaceOnUse">
<stop stop-color="#939AFE"/>
<stop offset="0.38" stop-color="#5060FF"/>
</linearGradient>
<linearGradient id="paint39_linear_2055_3576" x1="180.898" y1="514.231" x2="686.263" y2="514.2" gradientUnits="userSpaceOnUse">
<stop stop-color="#939AFE"/>
<stop offset="0.38" stop-color="#5060FF"/>
</linearGradient>
<linearGradient id="paint40_linear_2055_3576" x1="198.977" y1="514.528" x2="668.244" y2="514.499" gradientUnits="userSpaceOnUse">
<stop stop-color="#939AFE"/>
<stop offset="0.38" stop-color="#5060FF"/>
</linearGradient>
<linearGradient id="paint41_linear_2055_3576" x1="217.056" y1="514.825" x2="650.225" y2="514.798" gradientUnits="userSpaceOnUse">
<stop stop-color="#939AFE"/>
<stop offset="0.38" stop-color="#5060FF"/>
</linearGradient>
<linearGradient id="paint42_linear_2055_3576" x1="235.134" y1="515.122" x2="632.207" y2="515.097" gradientUnits="userSpaceOnUse">
<stop stop-color="#939AFE"/>
<stop offset="0.38" stop-color="#5060FF"/>
</linearGradient>
<linearGradient id="paint43_linear_2055_3576" x1="253.213" y1="515.419" x2="614.188" y2="515.397" gradientUnits="userSpaceOnUse">
<stop stop-color="#939AFE"/>
<stop offset="0.38" stop-color="#5060FF"/>
</linearGradient>
<linearGradient id="paint44_linear_2055_3576" x1="271.292" y1="515.716" x2="596.169" y2="515.696" gradientUnits="userSpaceOnUse">
<stop stop-color="#939AFE"/>
<stop offset="0.38" stop-color="#5060FF"/>
</linearGradient>
<linearGradient id="paint45_linear_2055_3576" x1="289.37" y1="516.013" x2="578.15" y2="515.995" gradientUnits="userSpaceOnUse">
<stop stop-color="#939AFE"/>
<stop offset="0.38" stop-color="#5060FF"/>
</linearGradient>
<linearGradient id="paint46_linear_2055_3576" x1="307.449" y1="516.31" x2="560.132" y2="516.294" gradientUnits="userSpaceOnUse">
<stop stop-color="#939AFE"/>
<stop offset="0.38" stop-color="#5060FF"/>
</linearGradient>
<linearGradient id="paint47_linear_2055_3576" x1="325.528" y1="516.607" x2="542.113" y2="516.594" gradientUnits="userSpaceOnUse">
<stop stop-color="#939AFE"/>
<stop offset="0.38" stop-color="#5060FF"/>
</linearGradient>
<linearGradient id="paint48_linear_2055_3576" x1="343.607" y1="516.904" x2="524.094" y2="516.893" gradientUnits="userSpaceOnUse">
<stop stop-color="#939AFE"/>
<stop offset="0.38" stop-color="#5060FF"/>
</linearGradient>
<linearGradient id="paint49_linear_2055_3576" x1="361.685" y1="517.201" x2="506.075" y2="517.192" gradientUnits="userSpaceOnUse">
<stop stop-color="#939AFE"/>
<stop offset="0.38" stop-color="#5060FF"/>
</linearGradient>
<linearGradient id="paint50_linear_2055_3576" x1="379.764" y1="517.498" x2="488.056" y2="517.491" gradientUnits="userSpaceOnUse">
<stop stop-color="#939AFE"/>
<stop offset="0.38" stop-color="#5060FF"/>
</linearGradient>
<clipPath id="clip0_2055_3576">
<rect width="390" height="844" fill="white"/>
</clipPath>
</defs>
</svg>
